<svg width="24" height="26" viewBox="0 0 24 26" fill="none" xmlns="http://www.w3.org/2000/svg">
<path d="M21.5 6.33237L18.5 2.33334H5.5L2.5 6.33237V22.3333C2.5 22.6869 2.64068 23.0257 2.89062 23.2757C3.1406 23.5257 3.4795 23.6663 3.83301 23.6664H20.167C20.5205 23.6663 20.8594 23.5257 21.1094 23.2757C21.3593 23.0257 21.5 22.6869 21.5 22.3333V6.33237ZM23.5 22.3333C23.5 23.2174 23.1486 24.0656 22.5234 24.6908C21.8984 25.3156 21.0508 25.6663 20.167 25.6664H3.83301C2.94922 25.6663 2.10158 25.3156 1.47656 24.6908C0.851441 24.0656 0.5 23.2174 0.5 22.3333V6.00034C0.5 5.78397 0.570373 5.57285 0.700195 5.39975L4.2002 0.733734L4.27539 0.64389C4.46295 0.446734 4.72451 0.333344 5 0.333344H19L19.1172 0.340179C19.3873 0.37203 19.6346 0.513454 19.7998 0.733734L23.2998 5.39975C23.4296 5.57285 23.5 5.78397 23.5 6.00034V22.3333Z" fill="black"/>
<path d="M22.5 5.15039L22.5869 5.1543C23.0155 5.19782 23.3496 5.5599 23.3496 6C23.3496 6.4401 23.0155 6.80218 22.5869 6.8457L22.5 6.84961H1.5C1.03056 6.84961 0.650391 6.46944 0.650391 6C0.650391 5.53056 1.03056 5.15039 1.5 5.15039H22.5Z" fill="black"/>
<path d="M6.4837 10.6667C6.4837 10.1972 6.86387 9.81705 7.33331 9.81705C7.80276 9.81705 8.18292 10.1972 8.18292 10.6667C8.18292 11.6789 8.58532 12.6501 9.30109 13.3659C10.0168 14.0815 10.9881 14.4831 12.0003 14.4831L12.1888 14.4782C13.1321 14.4315 14.0275 14.0368 14.6985 13.3659C15.4143 12.6501 15.8167 11.6789 15.8167 10.6667C15.8167 10.1973 16.197 9.81722 16.6663 9.81705C17.1358 9.81705 17.5169 10.1972 17.5169 10.6667C17.5169 12.1297 16.9352 13.5325 15.9007 14.567C14.9308 15.5369 13.6372 16.1087 12.2737 16.1764L12.0003 16.1833C10.5372 16.1833 9.13351 15.6016 8.09894 14.567C7.06457 13.5325 6.4837 12.1296 6.4837 10.6667Z" fill="black"/>
</svg>
