<svg width="239" height="131" viewBox="0 0 239 131" fill="none" xmlns="http://www.w3.org/2000/svg">
<path d="M155.11 19.7099H88.5121V72.537L88.5189 72.829C88.5911 74.2863 89.2021 75.6694 90.2386 76.706C91.3442 77.8115 92.8442 78.4326 94.4076 78.4326H149.214C150.778 78.4326 152.278 77.8114 153.383 76.706C154.489 75.6004 155.11 74.1006 155.11 72.537V19.7099ZM104.263 33.4042C104.263 32.3359 105.129 31.4697 106.198 31.4697C107.266 31.4697 108.132 32.3359 108.132 33.4042C108.132 37.0367 109.574 40.5198 112.139 43.0878C114.704 45.6558 118.184 47.0986 121.811 47.0986C125.438 47.0986 128.917 45.6558 131.483 43.0878C134.048 40.5198 135.49 37.0367 135.49 33.4042C135.49 32.3359 136.356 31.4697 137.424 31.4697C138.492 31.4697 139.359 32.3359 139.359 33.4042C139.359 38.0616 137.51 42.5284 134.219 45.8222C130.928 49.116 126.465 50.9667 121.811 50.9667C117.156 50.9667 112.692 49.1161 109.402 45.8222C106.111 42.5284 104.263 38.0615 104.263 33.4042ZM90.4125 15.8408H153.209L144.333 4.00482H99.2885L90.4125 15.8408ZM158.979 72.537C158.979 75.1266 157.95 77.6102 156.119 79.4413C154.287 81.2723 151.804 82.3007 149.214 82.3007H94.4076C91.8181 82.3007 89.3344 81.2723 87.5033 79.4413C85.7867 77.7247 84.7744 75.4347 84.6547 73.0214L84.6429 72.537V17.7294L84.6498 17.5732C84.6792 17.2105 84.8101 16.8622 85.0297 16.5693L96.7748 0.910095L96.9213 0.736267C97.284 0.355365 97.7892 0.135773 98.3217 0.135681H145.3L145.526 0.149353C146.049 0.210785 146.527 0.483778 146.847 0.910095L158.592 16.5693C158.843 16.904 158.979 17.3111 158.979 17.7294V72.537Z" fill="#BCBCBC"/>
<path d="M9.9946 119.337V125.465H7.20382V119.307L0.317871 107.598V107.264H3.32099L8.38687 116.971H8.84189L13.9078 107.264H16.8502V107.598L9.9946 119.337Z" fill="#A5A5A5"/>
<path d="M23.2326 125.829C18.743 125.829 16.1343 122.947 16.1343 118.336C16.1343 113.695 18.9554 110.935 23.2326 110.935C27.5097 110.935 30.3309 113.695 30.3309 118.336C30.3309 122.947 27.7221 125.829 23.2326 125.829ZM23.2326 113.21C20.3204 113.21 18.7734 115.121 18.7734 118.306C18.7734 121.491 20.1991 123.524 23.2022 123.524C26.2357 123.524 27.6917 121.491 27.6917 118.306C27.6917 115.121 26.1447 113.21 23.2326 113.21Z" fill="#A5A5A5"/>
<path d="M43.0176 125.465V121.764H42.7446C41.9862 124.312 40.0751 125.829 37.6484 125.829C34.4632 125.829 33.0375 123.766 33.0375 120.642V111.299H35.6766V120.005C35.6766 121.977 36.4653 123.402 38.7707 123.402C41.2885 123.402 42.9569 121.825 42.9569 119.398V111.299H45.596V125.465H43.0176Z" fill="#A5A5A5"/>
<path d="M51.8518 111.299V115.303L52.0642 115.333C52.7922 112.269 54.2482 111.147 56.4323 111.147H56.9784V114.059H56.2503C53.1865 114.059 51.9428 115.273 51.9428 118.458V125.465H49.3037V111.299H51.8518Z" fill="#A5A5A5"/>
<path d="M73.0069 125.829C67.4556 125.829 64.3615 122.128 64.3615 116.334C64.3615 110.54 67.6376 106.9 73.0979 106.9C77.7391 106.9 80.5905 109.479 81.2275 113.756L78.5884 114.272C77.9514 111.117 76.2223 109.357 73.0675 109.357C68.9724 109.357 67.1523 112.209 67.1523 116.334C67.1523 120.672 69.0027 123.402 73.0069 123.402C76.4043 123.402 78.0424 121.582 78.6794 118.336L81.3185 118.822C80.6815 123.16 77.8301 125.829 73.0069 125.829Z" fill="#A5A5A5"/>
<path d="M87.6902 125.768C85.0208 125.768 83.2917 124.585 83.2917 121.825C83.2917 119.398 84.8388 117.578 88.3272 117.578H92.8774V116.425C92.8774 114.332 92.0584 113.149 89.753 113.149C87.9026 113.149 86.7802 114.09 86.3252 115.97L83.8377 115.364C84.4444 112.664 86.4465 110.965 89.844 110.965C93.8178 110.965 95.5165 112.876 95.5165 116.395V125.465H92.9988V122.098H92.7258C91.9977 124.434 90.2383 125.768 87.6902 125.768ZM92.8774 120.187V119.398H88.7216C86.8712 119.398 85.8095 120.156 85.8095 121.522C85.8095 122.644 86.5072 123.645 88.6003 123.645C91.1787 123.645 92.8774 122.159 92.8774 120.187Z" fill="#A5A5A5"/>
<path d="M101.649 111.299V115.303L101.861 115.333C102.589 112.269 104.046 111.147 106.23 111.147H106.776V114.059H106.048C102.984 114.059 101.74 115.273 101.74 118.458V125.465H99.101V111.299H101.649Z" fill="#A5A5A5"/>
<path d="M108.017 113.483V111.299H110.171V107.325H112.81V111.299H117.33V113.483H112.81V120.945C112.81 122.553 113.417 123.372 114.994 123.372C115.753 123.372 116.39 123.22 117.148 123.008L117.482 125.344C116.511 125.677 115.753 125.829 114.448 125.829C111.506 125.829 110.171 123.888 110.171 121.249V113.483H108.017Z" fill="#A5A5A5"/>
<path d="M128.763 111.299V125.465H126.124V111.299H128.763ZM128.976 106.172V108.569H125.942V106.172H128.976Z" fill="#A5A5A5"/>
<path d="M138.244 125.829C133.815 125.829 132.238 124.009 131.692 121.158L134.088 120.672C134.573 122.492 135.605 123.827 138.274 123.827C140.276 123.827 141.277 123.129 141.308 121.704C141.308 120.369 140.337 119.792 137.395 119.277C133.724 118.64 132.359 117.335 132.359 115.06C132.359 112.543 134.149 110.935 137.789 110.935C141.52 110.935 142.794 112.573 143.462 115.091L141.035 115.606C140.58 113.635 139.579 112.907 137.728 112.907C135.878 112.907 134.907 113.665 134.907 114.909C134.907 116.031 135.635 116.82 138.426 117.275C142.46 118.003 143.856 119.337 143.856 121.613C143.856 124.161 142.157 125.829 138.244 125.829Z" fill="#A5A5A5"/>
<path d="M158.731 125.799C154.363 125.799 151.633 123.19 151.633 118.488C151.633 113.756 154.393 110.935 158.67 110.935C162.917 110.935 165.041 113.544 165.041 117.457C165.041 117.912 165.041 118.518 164.95 119.155H154.272C154.484 122.037 155.971 123.615 158.731 123.615C161.279 123.615 162.159 122.341 162.614 120.763L164.919 121.4C164.222 124.07 162.371 125.799 158.731 125.799ZM154.302 117.244H162.583C162.462 114.545 161.249 113.028 158.61 113.028C156.092 113.028 154.636 114.423 154.302 117.244Z" fill="#A5A5A5"/>
<path d="M170.465 111.299V114.969H170.738C171.557 112.421 173.347 110.935 175.865 110.935C178.656 110.935 180.021 112.603 180.264 115.182H180.567C181.265 112.543 182.933 110.935 185.724 110.935C188.879 110.935 190.365 113.028 190.365 116.092V125.465H187.726V116.729C187.726 114.787 186.846 113.331 184.662 113.331C182.084 113.331 180.446 114.939 180.446 117.366V125.465H177.806V116.729C177.806 114.787 176.927 113.331 174.743 113.331C172.195 113.331 170.526 114.939 170.526 117.366V125.465H167.887V111.299H170.465Z" fill="#A5A5A5"/>
<path d="M207.333 118.397C207.333 123.22 205.331 125.829 201.964 125.829C199.173 125.829 197.475 124.07 196.777 121.643H196.595V130.106H193.956V111.299H196.595V115.03H196.807C197.535 112.603 199.143 110.935 201.843 110.935C205.392 110.935 207.333 113.574 207.333 118.397ZM196.595 117.881V118.973C196.595 121.643 198.233 123.493 200.781 123.493C203.42 123.493 204.725 121.795 204.725 118.397C204.725 114.969 203.451 113.331 200.781 113.331C198.233 113.331 196.595 115.091 196.595 117.881Z" fill="#A5A5A5"/>
<path d="M208.856 113.483V111.299H211.01V107.325H213.649V111.299H218.169V113.483H213.649V120.945C213.649 122.553 214.256 123.372 215.833 123.372C216.592 123.372 217.229 123.22 217.987 123.008L218.321 125.344C217.35 125.677 216.592 125.829 215.287 125.829C212.345 125.829 211.01 123.888 211.01 121.249V113.483H208.856Z" fill="#A5A5A5"/>
<path d="M225.102 125.344L219.095 111.299H222.007L223.828 116.365C224.465 118.215 225.496 120.915 226.224 123.129H226.679C227.437 120.854 228.347 118.245 228.954 116.395L230.683 111.299H233.504L227.498 125.647C226.012 129.166 224.313 130.683 221.279 130.683C220.4 130.683 219.763 130.592 219.126 130.501L219.55 128.074C220.187 128.195 220.764 128.286 221.37 128.286C223.039 128.286 223.949 127.861 225.102 125.344Z" fill="#A5A5A5"/>
<path d="M238.523 107.264V118.973H235.854V107.264H238.523ZM235.55 125.465V122.219H238.857V125.465H235.55Z" fill="#A5A5A5"/>
</svg>
