<svg width="24" height="24" viewBox="0 0 24 24" fill="none" xmlns="http://www.w3.org/2000/svg">
<g clip-path="url(#clip0_472_177)">
<path d="M7.91591 19.0525C8.43385 19.0525 8.93058 18.8468 9.29682 18.4805C9.66306 18.1143 9.86881 17.6176 9.86881 17.0996C9.86881 16.5817 9.66306 16.085 9.29682 15.7187C8.93058 15.3525 8.43385 15.1467 7.91591 15.1467C7.39797 15.1467 6.90124 15.3525 6.535 15.7187C6.16876 16.085 5.96301 16.5817 5.96301 17.0996C5.96301 17.6176 6.16876 18.1143 6.535 18.4805C6.90124 18.8468 7.39797 19.0525 7.91591 19.0525ZM17.6804 19.0525C18.1983 19.0525 18.6951 18.8468 19.0613 18.4805C19.4276 18.1143 19.6333 17.6176 19.6333 17.0996C19.6333 16.5817 19.4276 16.085 19.0613 15.7187C18.6951 15.3525 18.1983 15.1467 17.6804 15.1467C17.1625 15.1467 16.6657 15.3525 16.2995 15.7187C15.9333 16.085 15.7275 16.5817 15.7275 17.0996C15.7275 17.6176 15.9333 18.1143 16.2995 18.4805C16.6657 18.8468 17.1625 19.0525 17.6804 19.0525Z" stroke="#636363" stroke-width="1.46467" stroke-miterlimit="1.5" stroke-linecap="round" stroke-linejoin="round"/>
<path d="M9.91768 17.0996H14.7511V6.94457C14.7511 6.78919 14.6894 6.64017 14.5795 6.5303C14.4696 6.42043 14.3206 6.3587 14.1652 6.3587H1.08081M5.6213 17.0996H3.61958C3.54264 17.0996 3.46646 17.0845 3.39538 17.0551C3.3243 17.0256 3.25971 16.9825 3.20531 16.928C3.1509 16.8736 3.10775 16.8091 3.07831 16.738C3.04886 16.6669 3.03371 16.5907 3.03371 16.5138V11.7292" stroke="#636363" stroke-width="1.46467" stroke-linecap="round"/>
<path d="M2.05713 9.28806H5.96293" stroke="#636363" stroke-width="1.46467" stroke-linecap="round" stroke-linejoin="round"/>
<path d="M14.7511 9.28806H20.229C20.3422 9.28808 20.453 9.32093 20.548 9.38262C20.643 9.44432 20.718 9.53221 20.7641 9.63567L22.5119 13.5688C22.5452 13.6435 22.5625 13.7243 22.5627 13.8061V16.5138C22.5627 16.5907 22.5475 16.6669 22.5181 16.738C22.4887 16.8091 22.4455 16.8736 22.3911 16.9281C22.3367 16.9825 22.2721 17.0256 22.201 17.0551C22.1299 17.0845 22.0538 17.0996 21.9768 17.0996H20.1216M14.7511 17.0996H15.7275" stroke="#636363" stroke-width="1.46467" stroke-linecap="round"/>
</g>
<defs>
<clipPath id="clip0_472_177">
<rect width="23.4348" height="23.4348" fill="white" transform="translate(0.10437 0.5)"/>
</clipPath>
</defs>
</svg>
