<svg width="26" height="25" viewBox="0 0 26 25" fill="none" xmlns="http://www.w3.org/2000/svg">
<g clip-path="url(#clip0_472_183)">
<path d="M17.2203 4.1231C17.5476 4.24561 17.8317 4.45932 18.0409 4.73675L18.1258 4.85876C18.3396 5.19625 18.4377 5.59513 18.4044 5.99325L18.4005 6.04133L18.4477 6.04922C18.6561 6.08821 18.8554 6.1638 19.0374 6.27046L19.2131 6.38689C19.3825 6.51427 19.5284 6.66951 19.6442 6.84575L19.7492 7.02873C19.8444 7.21796 19.9062 7.42201 19.9317 7.6312L19.9448 7.84204C19.9464 8.12452 19.8826 8.40387 19.7587 8.65772L19.5475 9.08927L19.6109 9.1062C19.7281 9.1364 19.8432 9.1786 19.9562 9.23386C20.3383 9.42088 20.642 9.73403 20.8175 10.1175L20.884 10.286C21.0416 10.7458 21.0104 11.2494 20.7967 11.6861L17.9771 17.4471C17.3643 18.6988 16.309 19.6741 15.0208 20.1883L14.76 20.2857C13.3537 20.7677 11.8133 20.6711 10.4781 20.0176C8.92554 19.2578 7.92552 18.2603 7.33726 17.0137L7.22462 16.7618C6.73856 15.5951 6.60851 14.2714 6.63143 12.8378L6.65062 12.2166C6.70703 10.9048 6.7665 9.98786 6.81853 9.35665L6.86767 8.81641C6.9051 8.44562 7.11221 8.07916 7.42245 7.85174C7.69243 7.65382 8.04054 7.56076 8.42581 7.66328L8.59269 7.71996L8.594 7.71951C9.32493 8.00862 9.91229 8.57542 10.2277 9.29541L10.2731 9.40028L12.2334 5.39528L12.334 5.21623C12.4074 5.10093 12.4937 4.99447 12.5908 4.89828L12.7442 4.76246C12.9057 4.63482 13.0871 4.53542 13.2807 4.46835L13.478 4.41165C13.6788 4.36646 13.8853 4.35569 14.0888 4.37895L14.2904 4.41349C14.5579 4.47489 14.8086 4.59569 15.0232 4.76672L15.0663 4.80086L15.0991 4.75603C15.3058 4.47412 15.5884 4.25814 15.9123 4.13201L16.0534 4.08364C16.4361 3.96941 16.8461 3.98314 17.2203 4.1231ZM16.766 5.45335C16.6893 5.41588 16.6036 5.40245 16.5202 5.41351L16.4374 5.43387C16.3295 5.47086 16.2401 5.54841 16.1898 5.65084L13.0619 12.0417L11.8023 11.4252L14.2666 6.39041C14.3042 6.31348 14.318 6.22741 14.3068 6.14374L14.2874 6.06136C14.2503 5.95335 14.1716 5.86447 14.0691 5.81427C13.9922 5.77675 13.9068 5.76327 13.8233 5.77443L13.7409 5.79391C13.6329 5.83093 13.544 5.90963 13.4938 6.01219L10.3663 12.4021L9.09532 11.7801C9.36103 10.5621 9.01007 9.59066 8.32226 9.15216L8.24761 9.10475L8.2405 9.1926C8.15404 10.2185 8.091 11.2463 8.05176 12.275L8.05133 12.2759C7.98754 13.7917 8.07257 15.0173 8.44169 16.0234L8.5198 16.2214C8.9405 17.2303 9.70136 18.0762 11.0945 18.7581C12.0333 19.2175 13.1073 19.3094 14.1068 19.0212L14.305 18.9584C15.3594 18.597 16.2274 17.8317 16.7175 16.8306L19.5372 11.0696C19.5747 10.9928 19.5881 10.9073 19.577 10.8238L19.558 10.7405C19.5209 10.6326 19.4422 10.5436 19.3397 10.4934C19.263 10.4559 19.1773 10.4425 19.0939 10.4536L19.0106 10.4726C18.9027 10.5096 18.8137 10.5884 18.7635 10.6909L17.1283 14.0319L15.8687 13.4154L18.4991 8.04123C18.5366 7.96445 18.5501 7.87892 18.539 7.79544L18.5199 7.71218C18.4828 7.6043 18.4041 7.51524 18.3016 7.46509C18.2249 7.42759 18.1392 7.4142 18.0558 7.42525L17.9726 7.4443C17.8646 7.4813 17.7757 7.56012 17.7255 7.66258L15.0951 13.0368L13.8355 12.4203L16.9635 6.02949C17.001 5.9527 17.0144 5.8672 17.0033 5.7837L16.9838 5.70132C16.9468 5.59331 16.8685 5.50355 16.766 5.45335Z" fill="#636363" stroke="white" stroke-width="0.106522"/>
</g>
<defs>
<clipPath id="clip0_472_183">
<rect width="18.1087" height="18.1087" fill="white" transform="translate(8.93469) rotate(26.0791)"/>
</clipPath>
</defs>
</svg>
