<svg width="40" height="40" viewBox="0 0 40 40" fill="none" xmlns="http://www.w3.org/2000/svg">
<path d="M40 20C40 31.0457 31.0457 40 20 40C8.9543 40 0 31.0457 0 20C0 8.9543 8.9543 0 20 0C31.0457 0 40 8.9543 40 20Z" fill="#252525"/>
<path d="M17.1614 12.8052C17.5224 12.4442 18.0934 12.4219 18.4807 12.7378L18.5559 12.8052L25.4592 19.7085C25.8443 20.0937 25.8443 20.7179 25.4592 21.1031L18.5559 28.0064C18.1708 28.3914 17.5465 28.3914 17.1614 28.0064C16.7763 27.6213 16.7763 26.997 17.1614 26.6118L23.3674 20.4058L17.1614 14.1997L17.094 14.1245C16.7781 13.7372 16.8003 13.1662 17.1614 12.8052Z" fill="white"/>
</svg>
