<svg width="130" height="38" viewBox="0 0 130 38" fill="none" xmlns="http://www.w3.org/2000/svg">
<path d="M6.62818 9.97438H3.08233V16H1.78451V2.09473H6.99899C10.4058 2.09473 11.75 3.62431 11.75 6.01138C11.75 8.14352 10.4521 9.60358 7.97235 9.90486L12.5379 15.7451V16H11.101L6.62818 9.97438ZM6.85993 3.23033H3.08233V8.83879H6.88311C9.10795 8.83879 10.4521 7.86542 10.4521 6.01138C10.4521 4.18052 9.61781 3.23033 6.85993 3.23033ZM18.9061 16.2318C15.5688 16.2318 13.6221 14.1228 13.6221 10.6233C13.6221 7.10063 15.7542 5.03801 18.8366 5.03801C21.9653 5.03801 23.5875 7.00793 23.5875 9.97438C23.5875 10.183 23.5875 10.6001 23.5644 10.9709H14.8736C14.9663 13.5666 16.38 15.1425 18.9061 15.1425C21.2005 15.1425 21.9653 13.9142 22.4288 12.431L23.5412 12.7786C22.985 14.9803 21.5017 16.2318 18.9061 16.2318ZM14.8967 9.95121H22.4288C22.3592 7.54096 21.2468 6.10408 18.8134 6.10408C16.519 6.10408 15.1053 7.44826 14.8967 9.95121ZM28.8009 16.2318C26.6456 16.2318 25.3478 15.3279 25.3478 13.2885C25.3478 11.5967 26.5529 10.2525 29.0559 10.2525H32.9493V9.14007C32.9493 7.19333 32.2077 6.12726 30.0756 6.12726C28.3374 6.12726 27.3409 7.00793 26.9469 8.69973L25.7649 8.3521C26.2516 6.21996 27.8044 5.03801 30.0988 5.03801C32.903 5.03801 34.1776 6.47489 34.1776 9.09372V16H32.9957V13.4507H32.8335C32.2772 15.2816 30.7708 16.2318 28.8009 16.2318ZM32.9493 12.1065V11.2259H29.1486C27.4104 11.2259 26.5529 11.8979 26.5529 13.2421C26.5529 14.2618 27.1555 15.1425 29.0095 15.1425C31.3966 15.1425 32.9493 13.8447 32.9493 12.1065ZM36.5486 10.6465C36.5486 7.0311 38.194 5.01484 40.9983 5.03801C43.3853 5.03801 44.6136 6.40536 45.1003 8.23622H45.2162V1.12136H46.4445V16H45.2162V13.0799H45.1235C44.5673 14.9108 43.1768 16.2318 40.9519 16.2318C38.1477 16.2318 36.5486 14.2618 36.5486 10.6465ZM45.2162 11.0636V10.2525C45.2162 7.81907 43.7098 6.15043 41.3691 6.15043C38.982 6.15043 37.8001 7.65684 37.8001 10.6465C37.8001 13.6361 38.982 15.1193 41.3691 15.1193C43.7098 15.1193 45.2162 13.5434 45.2162 11.0636ZM54.2351 16.2318C50.8978 16.2318 48.9511 14.1228 48.9511 10.6233C48.9511 7.10063 51.0832 5.03801 54.1656 5.03801C57.2942 5.03801 58.9165 7.00793 58.9165 9.97438C58.9165 10.183 58.9165 10.6001 58.8933 10.9709H50.2025C50.2952 13.5666 51.709 15.1425 54.2351 15.1425C56.5294 15.1425 57.2942 13.9142 57.7577 12.431L58.8702 12.7786C58.314 14.9803 56.8307 16.2318 54.2351 16.2318ZM50.2257 9.95121H57.7577C57.6882 7.54096 56.5758 6.10408 54.1424 6.10408C51.848 6.10408 50.4343 7.44826 50.2257 9.95121ZM60.4439 5.26977H61.7417L65.3803 10.1134L69.0188 5.26977H70.2471V5.5247L66.2378 10.5769L70.3167 15.7451V16H69.0188L65.3108 10.9941L61.6722 16H60.4207V15.7451L64.4765 10.5074L60.4439 5.5247V5.26977ZM78.2983 16.2318C74.1035 16.2318 71.8323 13.3812 71.8323 9.02419C71.8323 4.71356 74.2194 1.8398 78.3446 1.8398C81.8441 1.8398 83.9299 3.83289 84.4861 6.96157L83.281 7.23968C82.7248 4.55133 81.1257 3.02175 78.3678 3.02175C74.8219 3.02175 73.107 5.40882 73.107 9.02419C73.107 12.7323 74.8219 15.073 78.3214 15.073C81.2879 15.073 82.8175 13.4971 83.3505 10.7392L84.5788 10.9941C84.0458 14.1691 81.9368 16.2318 78.2983 16.2318ZM88.2648 5.26977V8.00447H88.3807C88.8673 6.10408 90.0493 5.15389 91.9033 5.15389H92.3668V6.45171H91.8802C89.4699 6.45171 88.288 7.56414 88.288 10.322V16H87.0597V5.26977H88.2648ZM97.1957 16.2318C95.0403 16.2318 93.7425 15.3279 93.7425 13.2885C93.7425 11.5967 94.9476 10.2525 97.4506 10.2525H101.344V9.14007C101.344 7.19333 100.602 6.12726 98.4703 6.12726C96.7322 6.12726 95.7356 7.00793 95.3416 8.69973L94.1597 8.3521C94.6464 6.21996 96.1991 5.03801 98.4935 5.03801C101.298 5.03801 102.572 6.47489 102.572 9.09372V16H101.39V13.4507H101.228C100.672 15.2816 99.1656 16.2318 97.1957 16.2318ZM101.344 12.1065V11.2259H97.5433C95.8051 11.2259 94.9476 11.8979 94.9476 13.2421C94.9476 14.2618 95.5502 15.1425 97.4042 15.1425C99.7913 15.1425 101.344 13.8447 101.344 12.1065ZM107.822 4.50498V5.26977H111.6V6.38219H107.822V16H106.594V6.38219H104.392V5.26977H106.594V4.4818C106.594 2.25696 107.706 0.889607 109.908 0.889607C110.673 0.889607 111.229 0.982309 111.669 1.07501L111.576 2.1179C111.02 2.0252 110.533 1.95568 110 1.95568C108.401 1.95568 107.822 2.85952 107.822 4.50498ZM112.381 6.38219V5.26977H114.235V2.09473H115.464V5.26977H119.287V6.38219H115.464V12.8945C115.464 14.3545 116.043 15.0962 117.41 15.0962C118.059 15.0962 118.5 15.0266 119.218 14.8181L119.403 15.9073C118.685 16.1159 118.106 16.2318 117.271 16.2318C115.209 16.2318 114.235 14.8876 114.235 12.9177V6.38219H112.381ZM125.468 16.2549C122.34 16.2549 121.111 14.8644 120.578 12.6164L121.737 12.3846C122.154 13.9142 122.965 15.1889 125.492 15.1889C127.322 15.1889 128.273 14.4704 128.273 13.1726C128.273 11.9443 127.346 11.4344 124.935 11.0636C122.247 10.6233 121.204 9.62675 121.204 8.02765C121.204 6.26631 122.502 5.03801 125.005 5.03801C127.624 5.03801 128.62 6.24314 129.153 8.18987L127.971 8.46798C127.531 6.70664 126.604 6.08091 125.005 6.08091C123.313 6.08091 122.432 6.77617 122.432 7.95812C122.432 9.00101 123.174 9.69628 125.422 10.0439C128.273 10.4842 129.501 11.4113 129.501 13.1726C129.501 14.9571 128.319 16.2549 125.468 16.2549ZM6.74406 34.3013C2.52612 34.2549 0.973369 32.3545 0.602562 29.7589L3.12869 29.2259C3.47632 31.1726 4.72779 32.146 6.83676 32.146C8.7835 32.146 9.64099 31.4507 9.64099 30.3151C9.64099 29.1332 8.85302 28.5306 6.14149 28.0671C2.31754 27.4645 1.1356 25.9813 1.1356 23.8028C1.1356 21.323 2.87376 19.7934 6.46595 19.7934C10.035 19.7934 11.495 21.4853 11.9585 23.8955L9.33971 24.4054C8.9689 22.7599 8.27364 21.9024 6.3269 21.9024C4.56556 21.9024 3.73125 22.5513 3.73125 23.6637C3.73125 24.6603 4.26428 25.3324 7.18439 25.8886C11.356 26.6302 12.283 28.183 12.283 30.1529C12.283 32.679 10.6375 34.3013 6.74406 34.3013ZM16.8364 19.1214V25.9813H17.0218C17.6476 23.965 18.9917 22.8294 20.8689 22.8294C23.0938 22.8294 24.183 24.3358 24.183 26.7229V34H21.7033V27.3718C21.7033 26.0508 21.1007 25.0775 19.6407 25.0775C17.9488 25.0775 16.8364 26.1899 16.8364 27.8353V34H14.3566V19.1214H16.8364ZM31.5818 34.3013C28.0823 34.3013 26.0429 32.1228 26.0429 28.5306C26.0429 24.9384 28.2214 22.8294 31.5818 22.8294C34.9191 22.8294 37.0744 24.9384 37.0744 28.5306C37.0744 32.1228 35.0349 34.3013 31.5818 34.3013ZM31.5586 24.9384C29.5424 24.9384 28.5458 26.2826 28.5458 28.5074C28.5458 30.7554 29.496 32.146 31.5586 32.146C33.6212 32.146 34.5946 30.7554 34.5946 28.5074C34.5946 26.2826 33.5981 24.9384 31.5586 24.9384ZM49.4542 28.5769C49.4542 32.285 47.971 34.3013 45.4912 34.3013C43.475 34.3013 42.2235 32.9803 41.6905 31.1031H41.5282V37.5227H39.0485V23.1075H41.5282V25.9349H41.7136C42.2698 24.0577 43.475 22.8294 45.4449 22.8294C48.0174 22.8294 49.4542 24.8689 49.4542 28.5769ZM41.5282 28.183V29.0173C41.5282 30.8481 42.6407 32.0996 44.3093 32.0996C46.0938 32.0996 46.9976 30.9177 46.9976 28.5769C46.9976 26.2362 46.117 25.0775 44.3325 25.0775C42.5943 25.0775 41.5282 26.2594 41.5282 28.183Z" fill="black"/>
</svg>
