<svg width="24" height="26" viewBox="0 0 24 26" fill="none" xmlns="http://www.w3.org/2000/svg">
<path fill-rule="evenodd" clip-rule="evenodd" d="M11.5523 0.820557C17.8472 0.820557 22.9676 5.94093 22.9676 12.2359C22.9676 15.2058 21.8278 17.9146 19.9627 19.9475L23.6327 23.6099C23.9762 23.9533 23.9774 24.509 23.6339 24.8524C23.4628 25.0259 23.2365 25.1115 23.0114 25.1115C22.7875 25.1115 22.5625 25.0259 22.3902 24.8548L18.6758 21.1508C16.722 22.7156 14.2445 23.6524 11.5523 23.6524C5.25729 23.6524 0.135742 18.5309 0.135742 12.2359C0.135742 5.94093 5.25729 0.820557 11.5523 0.820557ZM11.5523 2.57893C6.22674 2.57893 1.89411 6.91038 1.89411 12.2359C1.89411 17.5614 6.22674 21.894 11.5523 21.894C16.8766 21.894 21.2092 17.5614 21.2092 12.2359C21.2092 6.91038 16.8766 2.57893 11.5523 2.57893Z" fill="#797979"/>
</svg>
