<svg width="104" height="28" viewBox="0 0 104 28" fill="none" xmlns="http://www.w3.org/2000/svg">
<path d="M0 14C0 6.26801 6.26801 0 14 0H90C97.732 0 104 6.26801 104 14C104 21.732 97.732 28 90 28H14C6.26801 28 0 21.732 0 14Z" fill="#FFAB49"/>
<path d="M17.436 14.962V18H15.84V9.6H21.636V11.07H17.436V13.576H21.23V14.962H17.436Z" fill="white"/>
<path d="M24.2667 11.42V13.394L24.3927 13.408C24.7707 11.826 25.3867 11.35 26.3387 11.35H26.5767V13.044H26.2127C24.8267 13.044 24.3367 13.534 24.3367 14.878V18H22.8387V11.42H24.2667Z" fill="white"/>
<path d="M30.4955 18.168C28.4795 18.168 27.1775 16.992 27.1775 14.794C27.1775 12.568 28.4375 11.252 30.4955 11.252C32.4695 11.252 33.4495 12.456 33.4495 14.262C33.4495 14.528 33.4355 14.808 33.4215 15.144H28.6895C28.8015 16.334 29.4035 16.936 30.5095 16.936C31.5595 16.936 31.9235 16.432 32.1055 15.802L33.3935 16.166C33.0715 17.356 32.2735 18.168 30.4955 18.168ZM28.6895 14.136H32.0635C32.0075 13.002 31.5035 12.414 30.4535 12.414C29.4315 12.414 28.8435 12.96 28.6895 14.136Z" fill="white"/>
<path d="M37.6049 18.168C35.5889 18.168 34.2869 16.992 34.2869 14.794C34.2869 12.568 35.5469 11.252 37.6049 11.252C39.5789 11.252 40.5589 12.456 40.5589 14.262C40.5589 14.528 40.5449 14.808 40.5309 15.144H35.7989C35.9109 16.334 36.5129 16.936 37.6189 16.936C38.6689 16.936 39.0329 16.432 39.2149 15.802L40.5029 16.166C40.1809 17.356 39.3829 18.168 37.6049 18.168ZM35.7989 14.136H39.1729C39.1169 13.002 38.6129 12.414 37.5629 12.414C36.5409 12.414 35.9529 12.96 35.7989 14.136Z" fill="white"/>
<path d="M47.8986 18H44.4826V9.6H47.8986C50.7966 9.6 52.1266 11.056 52.1266 13.73C52.1266 16.376 50.5166 18 47.8986 18ZM46.0786 10.93V16.684H47.7726C49.7466 16.684 50.5306 15.62 50.5306 13.73C50.5306 11.756 49.7046 10.93 47.6886 10.93H46.0786Z" fill="white"/>
<path d="M56.2396 18.168C54.2236 18.168 52.9216 16.992 52.9216 14.794C52.9216 12.568 54.1816 11.252 56.2396 11.252C58.2136 11.252 59.1936 12.456 59.1936 14.262C59.1936 14.528 59.1796 14.808 59.1656 15.144H54.4336C54.5456 16.334 55.1476 16.936 56.2536 16.936C57.3036 16.936 57.6676 16.432 57.8496 15.802L59.1376 16.166C58.8156 17.356 58.0176 18.168 56.2396 18.168ZM54.4336 14.136H57.8076C57.7516 13.002 57.2476 12.414 56.1976 12.414C55.1756 12.414 54.5876 12.96 54.4336 14.136Z" fill="white"/>
<path d="M60.451 9.012H61.963V18H60.451V9.012Z" fill="white"/>
<path d="M65.1632 11.42V18H63.6652V11.42H65.1632ZM65.2332 9.082V10.3H63.5952V9.082H65.2332Z" fill="white"/>
<path d="M72.8268 11.42L70.4048 18H68.4168L65.9808 11.42H67.6188L68.4308 13.968C68.7248 14.906 69.0188 15.816 69.2848 16.712H69.5648C69.8308 15.816 70.1388 14.878 70.4188 13.968L71.2308 11.42H72.8268Z" fill="white"/>
<path d="M76.3783 18.168C74.3623 18.168 73.0603 16.992 73.0603 14.794C73.0603 12.568 74.3203 11.252 76.3783 11.252C78.3523 11.252 79.3323 12.456 79.3323 14.262C79.3323 14.528 79.3183 14.808 79.3043 15.144H74.5723C74.6843 16.334 75.2863 16.936 76.3923 16.936C77.4423 16.936 77.8063 16.432 77.9883 15.802L79.2763 16.166C78.9543 17.356 78.1563 18.168 76.3783 18.168ZM74.5723 14.136H77.9463C77.8903 13.002 77.3863 12.414 76.3363 12.414C75.3143 12.414 74.7263 12.96 74.5723 14.136Z" fill="white"/>
<path d="M81.9757 11.42V13.394L82.1017 13.408C82.4797 11.826 83.0957 11.35 84.0477 11.35H84.2857V13.044H83.9217C82.5357 13.044 82.0457 13.534 82.0457 14.878V18H80.5477V11.42H81.9757Z" fill="white"/>
<path d="M87.2782 17.93L84.6322 11.42H86.2842L87.0542 13.8C87.3202 14.626 87.6702 15.704 87.9642 16.67H88.1882C88.4822 15.676 88.8182 14.654 89.0562 13.828L89.7702 11.42H91.3802L88.6642 18.084C87.9922 19.722 87.1802 20.45 85.6682 20.45C85.2342 20.45 84.9542 20.408 84.6322 20.366L84.8702 19.008C85.1502 19.064 85.4302 19.106 85.7102 19.106C86.4522 19.106 86.8442 18.924 87.2782 17.93Z" fill="white"/>
</svg>
