<svg width="141" height="43" viewBox="0 0 141 43" fill="none" xmlns="http://www.w3.org/2000/svg">
<path d="M0 21.5C0 9.67637 9.58494 0 21.4086 0H119.591C131.415 0 141 9.67637 141 21.5C141 33.3236 131.415 43 119.591 43H21.4086C9.58494 43 0 33.3236 0 21.5Z" fill="black"/>
<path d="M82.6801 26.2647C80.3715 26.2647 79.6472 25.3141 79.3756 23.9711L80.8393 23.6693C81.0656 24.5143 81.5635 25.0726 82.7103 25.0726C83.5704 25.0726 84.008 24.7709 84.0231 24.1673C84.0231 23.609 83.6308 23.3374 82.2275 23.0809C80.3413 22.7187 79.6774 22.0548 79.6774 20.8929C79.6774 19.6103 80.6129 18.7955 82.4991 18.7955C84.4456 18.7955 85.1246 19.5953 85.3962 20.8477L83.9325 21.1645C83.7364 20.2743 83.3139 19.9574 82.4689 19.9574C81.639 19.9574 81.2165 20.2441 81.2165 20.8024C81.2165 21.3003 81.5183 21.6474 82.8612 21.8888C84.9737 22.2811 85.5924 22.9752 85.5924 24.1069C85.5924 25.4197 84.7323 26.2647 82.6801 26.2647Z" fill="white"/>
<path d="M76.4615 18.9766V21.1042L76.5973 21.1193C77.0047 19.4142 77.6687 18.9012 78.6947 18.9012H78.9512V20.727H78.5589C77.0651 20.727 76.537 21.2551 76.537 22.7037V26.0686H74.9224V18.9766H76.4615Z" fill="white"/>
<path d="M70.4287 26.2496C68.2558 26.2496 66.8525 24.9821 66.8525 22.6131C66.8525 20.2139 68.2106 18.7955 70.4287 18.7955C72.5563 18.7955 73.6125 20.0932 73.6125 22.0397C73.6125 22.3264 73.5974 22.6282 73.5823 22.9903H68.4822C68.6029 24.2729 69.2517 24.9217 70.4438 24.9217C71.5755 24.9217 71.9678 24.3785 72.1639 23.6995L73.5521 24.0918C73.2051 25.3744 72.345 26.2496 70.4287 26.2496ZM68.4822 21.9039H72.1187C72.0583 20.6817 71.5151 20.0479 70.3834 20.0479C69.2819 20.0479 68.6481 20.6364 68.4822 21.9039Z" fill="white"/>
<path d="M58.7922 22.5528C58.7922 20.1234 59.7428 18.7805 61.4177 18.7956C62.7003 18.7805 63.4849 19.6104 63.8471 20.8326H63.9527V16.3813H65.5672V26.0686H63.9527V24.1975H63.8471C63.5 25.4046 62.655 26.2647 61.3724 26.2647C59.7428 26.2647 58.7922 24.967 58.7922 22.5528ZM63.9527 22.8395V22.2963C63.9527 21.074 63.2435 20.2592 62.142 20.2592C60.9801 20.2592 60.3916 21.0288 60.3916 22.5528C60.3916 24.0768 60.9348 24.8161 62.142 24.8161C63.2284 24.8161 63.9527 24.0466 63.9527 22.8395Z" fill="white"/>
<path d="M55.6549 18.9766V21.1042L55.7907 21.1193C56.1982 19.4142 56.8621 18.9012 57.8881 18.9012H58.1447V20.727H57.7523C56.2585 20.727 55.7304 21.2551 55.7304 22.7037V26.0686H54.1158V18.9766H55.6549Z" fill="white"/>
<path d="M48.3182 26.2647C45.406 26.2647 43.7914 24.3785 43.7914 21.5116C43.7914 18.6748 45.4965 16.8188 48.3182 16.8188C51.1399 16.8188 52.8449 18.6748 52.8449 21.5116C52.8449 24.3785 51.2153 26.2647 48.3182 26.2647ZM48.3031 24.7709C50.2798 24.7709 51.1248 23.4883 51.1248 21.5116C51.1248 19.5953 50.2496 18.3278 48.3182 18.3278C46.3717 18.3278 45.4965 19.6254 45.4965 21.5116C45.4965 23.4883 46.3566 24.7709 48.3031 24.7709Z" fill="white"/>
<path d="M36.069 25.9931L33.2172 18.9766H34.9977L35.8276 21.5418C36.1143 22.432 36.4916 23.5939 36.8084 24.6351H37.0499C37.3667 23.5637 37.7289 22.4622 37.9854 21.572L38.7549 18.9766H40.4902L37.5629 26.1591C36.8386 27.9245 35.9634 28.7092 34.3338 28.7092C33.866 28.7092 33.5642 28.6639 33.2172 28.6186L33.4737 27.155C33.7755 27.2153 34.0773 27.2606 34.3791 27.2606C35.1788 27.2606 35.6013 27.0644 36.069 25.9931Z" fill="white"/>
<path d="M27.0357 23.775H27.2771C27.5789 22.7338 27.941 21.5267 28.1825 20.8628L29.6159 17.015H32.2566V26.0685H30.5364V21.8737C30.5364 20.8326 30.5967 19.4896 30.6118 18.4183H30.3553C30.0384 19.5651 29.6159 20.9382 29.1482 22.1906L27.8354 25.5555H26.1605L24.893 22.1303C24.4253 20.8024 24.048 19.5198 23.7312 18.4183H23.4897C23.5048 19.3388 23.5048 20.4403 23.5048 21.4211V26.0685H21.9054V17.015H24.727L26.1303 20.9231C26.3265 21.5116 26.7339 22.764 27.0357 23.775Z" fill="white"/>
<path d="M118.781 14.9107C119.109 14.5832 119.639 14.5832 119.967 14.9107L125.838 20.7808C126.165 21.1084 126.165 21.6398 125.838 21.9674L119.967 27.8375C119.639 28.165 119.109 28.165 118.781 27.8375C118.454 27.51 118.454 26.9794 118.781 26.6519L124.057 21.3736L118.781 16.0963C118.454 15.7687 118.454 15.2382 118.781 14.9107Z" fill="white"/>
</svg>
