<svg width="15" height="15" viewBox="0 0 15 15" fill="none" xmlns="http://www.w3.org/2000/svg">
<path fill-rule="evenodd" clip-rule="evenodd" d="M7.4139 0.43042C10.9587 0.43042 13.842 3.31377 13.842 6.85855C13.842 8.53096 13.2002 10.0563 12.1499 11.2011L14.2166 13.2634C14.41 13.4568 14.4106 13.7697 14.2172 13.9631C14.1209 14.0608 13.9935 14.109 13.8667 14.109C13.7406 14.109 13.6139 14.0608 13.5169 13.9644L11.4253 11.8787C10.325 12.7598 8.92995 13.2873 7.4139 13.2873C3.86912 13.2873 0.985107 10.4033 0.985107 6.85855C0.985107 3.31377 3.86912 0.43042 7.4139 0.43042ZM7.4139 1.42058C4.41503 1.42058 1.97527 3.85968 1.97527 6.85855C1.97527 9.85742 4.41503 12.2972 7.4139 12.2972C10.4121 12.2972 12.8519 9.85742 12.8519 6.85855C12.8519 3.85968 10.4121 1.42058 7.4139 1.42058Z" fill="white"/>
</svg>
