<svg width="39" height="39" viewBox="0 0 39 39" fill="none" xmlns="http://www.w3.org/2000/svg">
<path d="M39 19.5C39 30.2696 30.2696 39 19.5 39C8.73045 39 0 30.2696 0 19.5C0 8.73045 8.73045 0 19.5 0C30.2696 0 39 8.73045 39 19.5Z" fill="#FFDFDF"/>
<path d="M18.1668 12.5833H21.8335C21.8335 12.0971 21.6403 11.6308 21.2965 11.287C20.9527 10.9432 20.4864 10.75 20.0002 10.75C19.5139 10.75 19.0476 10.9432 18.7038 11.287C18.36 11.6308 18.1668 12.0971 18.1668 12.5833ZM16.7918 12.5833C16.7918 12.162 16.8748 11.7448 17.036 11.3556C17.1973 10.9663 17.4336 10.6126 17.7315 10.3147C18.0295 10.0168 18.3831 9.78045 18.7724 9.61922C19.1616 9.45799 19.5788 9.375 20.0002 9.375C20.4215 9.375 20.8387 9.45799 21.2279 9.61922C21.6172 9.78045 21.9709 10.0168 22.2688 10.3147C22.5667 10.6126 22.803 10.9663 22.9643 11.3556C23.1255 11.7448 23.2085 12.162 23.2085 12.5833H28.4793C28.6617 12.5833 28.8365 12.6558 28.9655 12.7847C29.0944 12.9136 29.1668 13.0885 29.1668 13.2708C29.1668 13.4532 29.0944 13.628 28.9655 13.757C28.8365 13.8859 28.6617 13.9583 28.4793 13.9583H27.2693L26.1968 25.0601C26.1146 25.9107 25.7184 26.7002 25.0855 27.2746C24.4527 27.849 23.6286 28.167 22.774 28.1667H17.2263C16.3719 28.1668 15.548 27.8486 14.9154 27.2743C14.2827 26.6999 13.8867 25.9106 13.8044 25.0601L12.731 13.9583H11.521C11.3387 13.9583 11.1638 13.8859 11.0349 13.757C10.9059 13.628 10.8335 13.4532 10.8335 13.2708C10.8335 13.0885 10.9059 12.9136 11.0349 12.7847C11.1638 12.6558 11.3387 12.5833 11.521 12.5833H16.7918ZM18.6252 16.9375C18.6252 16.7552 18.5527 16.5803 18.4238 16.4514C18.2949 16.3224 18.12 16.25 17.9377 16.25C17.7553 16.25 17.5805 16.3224 17.4515 16.4514C17.3226 16.5803 17.2502 16.7552 17.2502 16.9375V23.8125C17.2502 23.9948 17.3226 24.1697 17.4515 24.2986C17.5805 24.4276 17.7553 24.5 17.9377 24.5C18.12 24.5 18.2949 24.4276 18.4238 24.2986C18.5527 24.1697 18.6252 23.9948 18.6252 23.8125V16.9375ZM22.0627 16.25C21.8803 16.25 21.7055 16.3224 21.5765 16.4514C21.4476 16.5803 21.3752 16.7552 21.3752 16.9375V23.8125C21.3752 23.9948 21.4476 24.1697 21.5765 24.2986C21.7055 24.4276 21.8803 24.5 22.0627 24.5C22.245 24.5 22.4199 24.4276 22.5488 24.2986C22.6777 24.1697 22.7502 23.9948 22.7502 23.8125V16.9375C22.7502 16.7552 22.6777 16.5803 22.5488 16.4514C22.4199 16.3224 22.245 16.25 22.0627 16.25Z" fill="#FF6666"/>
</svg>
