<svg width="39" height="39" viewBox="0 0 39 39" fill="none" xmlns="http://www.w3.org/2000/svg">
<path d="M21.3196 3.61475C22.4818 3.61029 23.6439 3.62197 24.8058 3.64979L25.1148 3.66094C25.4715 3.67368 25.8235 3.6896 26.2487 3.70872C27.9432 3.78834 29.0994 4.0559 30.1139 4.44927C31.165 4.85379 32.0505 5.40164 32.936 6.28712C33.7456 7.08279 34.3722 8.04525 34.7722 9.10759C35.1656 10.1221 35.4331 11.2799 35.5128 12.9744C35.5319 13.398 35.5478 13.7516 35.5605 14.1083L35.5701 14.4173C35.5984 15.5786 35.6106 16.7402 35.6067 17.9019L35.6083 19.0899V21.1762C35.6123 22.3384 35.6 23.5006 35.5717 24.6624L35.5621 24.9714C35.5494 25.3281 35.5335 25.6801 35.5144 26.1053C35.4347 27.7998 35.164 28.956 34.7722 29.9705C34.3735 31.034 33.7467 31.9972 32.936 32.7926C32.1396 33.6021 31.1766 34.2287 30.1139 34.6288C29.0994 35.0222 27.9432 35.2898 26.2487 35.3694C25.8235 35.3885 25.4715 35.4044 25.1148 35.4172L24.8058 35.4267C23.644 35.455 22.4818 35.4673 21.3196 35.4634L20.1315 35.465H18.0468C16.8847 35.4689 15.7225 35.4567 14.5607 35.4283L14.2517 35.4188C13.8736 35.4051 13.4957 35.3891 13.1178 35.371C11.4233 35.2914 10.267 35.0206 9.25097 34.6288C8.18821 34.2297 7.22557 33.6029 6.43049 32.7926C5.61994 31.9967 4.99274 31.0337 4.59264 29.9705C4.19927 28.956 3.93172 27.7998 3.85209 26.1053C3.83435 25.7274 3.81843 25.3494 3.80431 24.9714L3.79635 24.6624C3.76699 23.5006 3.75371 22.3384 3.75653 21.1762V17.9019C3.75209 16.7402 3.76377 15.5786 3.79157 14.4173L3.80272 14.1083C3.81546 13.7516 3.83139 13.398 3.8505 12.9744C3.93013 11.2783 4.19768 10.1237 4.59105 9.10759C4.99138 8.04473 5.61981 7.08253 6.43208 6.28871C7.22662 5.47769 8.18865 4.84992 9.25097 4.44927C10.267 4.0559 11.4217 3.78834 13.1178 3.70872L14.2517 3.66094L14.5607 3.65297C15.722 3.62363 16.8836 3.61035 18.0452 3.61316L21.3196 3.61475ZM19.6824 11.5777C18.6273 11.5628 17.5798 11.7577 16.6007 12.1511C15.6216 12.5446 14.7305 13.1287 13.9791 13.8695C13.2277 14.6104 12.6311 15.4931 12.2238 16.4666C11.8166 17.44 11.6069 18.4847 11.6069 19.5399C11.6069 20.595 11.8166 21.6397 12.2238 22.6131C12.6311 23.5866 13.2277 24.4693 13.9791 25.2102C14.7305 25.951 15.6216 26.5351 16.6007 26.9286C17.5798 27.322 18.6273 27.5169 19.6824 27.502C21.7943 27.502 23.8197 26.6631 25.3131 25.1697C26.8064 23.6764 27.6454 21.651 27.6454 19.5391C27.6454 17.4272 26.8064 15.4017 25.3131 13.9084C23.8197 12.4151 21.7943 11.5777 19.6824 11.5777ZM19.6824 14.7629C20.3171 14.7512 20.9477 14.8661 21.5375 15.1008C22.1272 15.3356 22.6643 15.6855 23.1173 16.1302C23.5703 16.5748 23.9301 17.1053 24.1758 17.6906C24.4215 18.2759 24.5481 18.9043 24.5482 19.539C24.5483 20.1738 24.4219 20.8022 24.1764 21.3876C23.931 21.973 23.5713 22.5036 23.1184 22.9484C22.6656 23.3932 22.1286 23.7433 21.539 23.9782C20.9493 24.2132 20.3187 24.3283 19.684 24.3168C18.4169 24.3168 17.2016 23.8135 16.3056 22.9174C15.4096 22.0214 14.9063 20.8062 14.9063 19.5391C14.9063 18.2719 15.4096 17.0567 16.3056 16.1607C17.2016 15.2647 18.4169 14.7613 19.684 14.7613L19.6824 14.7629ZM28.0435 9.18882C27.5297 9.20938 27.0438 9.42794 26.6876 9.79873C26.3314 10.1695 26.1324 10.6638 26.1324 11.178C26.1324 11.6922 26.3314 12.1864 26.6876 12.5572C27.0438 12.928 27.5297 13.1465 28.0435 13.1671C28.5715 13.1671 29.0779 12.9574 29.4512 12.584C29.8245 12.2107 30.0343 11.7043 30.0343 11.1764C30.0343 10.6484 29.8245 10.142 29.4512 9.7687C29.0779 9.39537 28.5715 9.18563 28.0435 9.18563V9.18882Z" fill="white"/>
</svg>
