<svg width="181" height="34" viewBox="0 0 181 34" fill="none" xmlns="http://www.w3.org/2000/svg">
<path d="M0 17C0 7.61116 7.61116 0 17 0H164C173.389 0 181 7.61116 181 17C181 26.3888 173.389 34 164 34H17C7.61116 34 0 26.3888 0 17Z" fill="#1DBF7B"/>
<path d="M30.2676 17.6015C30.2676 24.9036 24.3481 30.823 17.0461 30.823C9.74406 30.823 3.8246 24.9036 3.8246 17.6015C3.8246 10.2995 9.74406 4.38004 17.0461 4.38004C24.3481 4.38004 30.2676 10.2995 30.2676 17.6015Z" fill="#12AC6B"/>
<path d="M113.68 18.1021C113.68 15.4087 114.734 13.9198 116.591 13.9365C118.013 13.9198 118.883 14.8399 119.284 16.195H119.401V11.2598H121.191V22H119.401V19.9256H119.284C118.899 21.2639 117.962 22.2175 116.54 22.2175C114.734 22.2175 113.68 20.7788 113.68 18.1021ZM119.401 18.4199V17.8177C119.401 16.4626 118.615 15.5592 117.394 15.5592C116.106 15.5592 115.453 16.4124 115.453 18.1021C115.453 19.7917 116.055 20.6115 117.394 20.6115C118.598 20.6115 119.401 19.7583 119.401 18.4199Z" fill="white"/>
<path d="M109.149 22.2007C106.74 22.2007 105.184 20.7955 105.184 18.169C105.184 15.509 106.69 13.9365 109.149 13.9365C111.508 13.9365 112.679 15.3752 112.679 17.5333C112.679 17.8511 112.662 18.1857 112.646 18.5872H106.991C107.125 20.0092 107.844 20.7286 109.166 20.7286C110.421 20.7286 110.856 20.1263 111.073 19.3735L112.612 19.8085C112.227 21.2304 111.274 22.2007 109.149 22.2007ZM106.991 17.3827H111.023C110.956 16.0276 110.354 15.325 109.099 15.325C107.878 15.325 107.175 15.9775 106.991 17.3827Z" fill="white"/>
<path d="M101.706 14.1373V16.4961L101.857 16.5128C102.308 14.6224 103.045 14.0536 104.182 14.0536H104.467V16.0779H104.032C102.375 16.0779 101.79 16.6634 101.79 18.2694V22H99.9998V14.1373H101.706Z" fill="white"/>
<path d="M95.0176 22.2007C92.6086 22.2007 91.0528 20.7955 91.0528 18.169C91.0528 15.509 92.5584 13.9365 95.0176 13.9365C97.3765 13.9365 98.5475 15.3752 98.5475 17.5333C98.5475 17.8511 98.5308 18.1857 98.514 18.5872H92.8596C92.9934 20.0092 93.7128 20.7286 95.0344 20.7286C96.2891 20.7286 96.724 20.1263 96.9415 19.3735L98.4806 19.8085C98.0958 21.2304 97.1423 22.2007 95.0176 22.2007ZM92.8596 17.3827H96.8913C96.8244 16.0276 96.2221 15.325 94.9674 15.325C93.7462 15.325 93.0436 15.9775 92.8596 17.3827Z" fill="white"/>
<path d="M82.1164 18.1021C82.1164 15.4087 83.1703 13.9198 85.0273 13.9365C86.4492 13.9198 87.3192 14.8399 87.7207 16.195H87.8378V11.2598H89.6278V22H87.8378V19.9256H87.7207C87.3359 21.2639 86.3991 22.2175 84.9771 22.2175C83.1703 22.2175 82.1164 20.7788 82.1164 18.1021ZM87.8378 18.4199V17.8177C87.8378 16.4626 87.0515 15.5592 85.8303 15.5592C84.5421 15.5592 83.8897 16.4124 83.8897 18.1021C83.8897 19.7917 84.4919 20.6115 85.8303 20.6115C87.0348 20.6115 87.8378 19.7583 87.8378 18.4199Z" fill="white"/>
<path d="M78.6381 14.1373V16.4961L78.7887 16.5128C79.2404 14.6224 79.9765 14.0536 81.114 14.0536H81.3984V16.0779H80.9635C79.3073 16.0779 78.7218 16.6634 78.7218 18.2694V22H76.9317V14.1373H78.6381Z" fill="white"/>
<path d="M70.5039 22.2175C67.2752 22.2175 65.4852 20.1263 65.4852 16.9478C65.4852 13.8027 67.3756 11.745 70.5039 11.745C73.6323 11.745 75.5227 13.8027 75.5227 16.9478C75.5227 20.1263 73.7159 22.2175 70.5039 22.2175ZM70.4872 20.5613C72.6787 20.5613 73.6156 19.1393 73.6156 16.9478C73.6156 14.8231 72.6453 13.4179 70.5039 13.4179C68.3459 13.4179 67.3756 14.8566 67.3756 16.9478C67.3756 19.1393 68.3291 20.5613 70.4872 20.5613Z" fill="white"/>
<path d="M21.7162 14.2877C22.0291 13.9748 22.5361 13.9749 22.849 14.2877C23.1619 14.6006 23.1619 15.1076 22.849 15.4205L16.2397 22.0308C15.9268 22.3437 15.4188 22.3437 15.1059 22.0308L12.102 19.0259C11.7891 18.7131 11.7891 18.206 12.102 17.8931C12.3953 17.5998 12.8596 17.5809 13.1742 17.8375L13.2348 17.8931L15.6723 20.3297L21.7162 14.2877Z" fill="white"/>
</svg>
