<svg width="39" height="39" viewBox="0 0 39 39" fill="none" xmlns="http://www.w3.org/2000/svg">
<path d="M19.1124 3.61304C27.9083 3.61304 35.0383 10.7431 35.0383 19.5389C35.0383 28.3348 27.9083 35.4648 19.1124 35.4648C16.298 35.4694 13.5331 34.7245 11.1017 33.3069L3.19292 35.4648L5.3461 27.5528C3.92725 25.1208 3.18184 22.3546 3.18655 19.5389C3.18655 10.7431 10.3166 3.61304 19.1124 3.61304ZM13.6849 12.0538L13.3664 12.0665C13.1602 12.0791 12.9586 12.1332 12.7739 12.2258C12.6012 12.3236 12.4435 12.4459 12.3057 12.5889C12.1146 12.7688 12.0063 12.9249 11.89 13.0762C11.301 13.8421 10.9838 14.7824 10.9886 15.7486C10.9918 16.5289 11.1957 17.2886 11.5142 17.9989C12.1656 19.4354 13.2374 20.9563 14.6516 22.3658C14.9924 22.705 15.3269 23.0458 15.6868 23.3627C17.444 24.9099 19.5381 26.0256 21.8023 26.6212L22.7069 26.7597C23.0015 26.7757 23.2962 26.7534 23.5924 26.739C24.0562 26.7151 24.5091 26.5895 24.919 26.3711C25.1276 26.2637 25.3311 26.1468 25.529 26.0208C25.529 26.0208 25.5975 25.9762 25.7281 25.8774C25.9431 25.7182 26.0752 25.6051 26.2536 25.4188C26.3858 25.2818 26.5005 25.121 26.5881 24.9378C26.7123 24.6782 26.8365 24.1829 26.8875 23.7704C26.9257 23.4551 26.9145 23.2831 26.9098 23.1764C26.9034 23.006 26.7616 22.8292 26.6072 22.7544L25.6803 22.3387C25.6803 22.3387 24.2947 21.7351 23.4475 21.3497C23.3588 21.311 23.2638 21.2889 23.1672 21.2844C23.0582 21.2732 22.9481 21.2855 22.8443 21.3204C22.7404 21.3553 22.6453 21.412 22.5652 21.4867C22.5572 21.4835 22.4505 21.5743 21.2991 22.9694C21.233 23.0582 21.1419 23.1253 21.0376 23.1622C20.9332 23.199 20.8202 23.204 20.713 23.1764C20.6092 23.1486 20.5076 23.1135 20.4088 23.0713C20.2113 22.9885 20.1428 22.9566 20.0075 22.8993C19.0934 22.5004 18.2472 21.9615 17.4991 21.3019C17.2985 21.1267 17.1121 20.9356 16.921 20.7509C16.2945 20.1509 15.7485 19.4721 15.2966 18.7315L15.2026 18.5802C15.1351 18.4785 15.0806 18.3689 15.0402 18.2537C14.9797 18.0196 15.1373 17.8317 15.1373 17.8317C15.1373 17.8317 15.5243 17.408 15.7043 17.1787C15.8795 16.9558 16.0276 16.7392 16.1231 16.5847C16.3111 16.2821 16.37 15.9715 16.2713 15.7311C15.8253 14.6417 15.3635 13.5572 14.8889 12.4806C14.7949 12.2672 14.5162 12.1143 14.263 12.084C14.177 12.0745 14.091 12.0649 14.005 12.0585C13.7911 12.0479 13.5768 12.05 13.3632 12.0649L13.6833 12.0522L13.6849 12.0538Z" fill="white"/>
</svg>
