<svg width="38" height="38" viewBox="0 0 38 38" fill="none" xmlns="http://www.w3.org/2000/svg">
<g clip-path="url(#clip0_522_54)">
<path d="M19.403 5.03247H19.608C21.5015 5.03938 31.0959 5.10849 33.6828 5.80417C34.4648 6.01648 35.1774 6.43033 35.7494 7.00434C36.3214 7.57836 36.7328 8.29244 36.9423 9.07523C37.175 9.95059 37.3385 11.1093 37.4491 12.3048L37.4721 12.5444L37.5228 13.1433L37.5412 13.3829C37.691 15.4884 37.7094 17.4602 37.7117 17.891V18.0638C37.7094 18.5106 37.6887 20.6161 37.5228 22.8091L37.5044 23.051L37.4836 23.2905C37.3685 24.6082 37.198 25.9166 36.9423 26.8795C36.7334 27.6626 36.3223 28.377 35.7502 28.9511C35.1781 29.5253 34.4651 29.9389 33.6828 30.1506C31.0106 30.8693 20.8542 30.92 19.4467 30.9223H19.1196C18.4078 30.9223 15.4639 30.9084 12.3771 30.8025L11.9855 30.7887L11.7851 30.7794L11.3911 30.7633L10.9972 30.7472C8.44028 30.6343 6.00541 30.4523 4.88357 30.1483C4.10148 29.9368 3.3887 29.5235 2.81663 28.9498C2.24456 28.3761 1.83329 27.6622 1.62402 26.8795C1.36833 25.9189 1.19786 24.6082 1.08268 23.2905L1.06425 23.0487L1.04583 22.8091C0.93214 21.2482 0.869142 19.684 0.856934 18.119L0.856934 17.8357C0.861541 17.3404 0.879969 15.6289 1.00436 13.74L1.02049 13.5027L1.0274 13.3829L1.04583 13.1433L1.0965 12.5444L1.11954 12.3048C1.23011 11.1093 1.39366 9.94828 1.62632 9.07523C1.83524 8.29213 2.24636 7.57771 2.81845 7.00359C3.39054 6.42948 4.10351 6.01585 4.88587 5.80417C6.00771 5.5047 8.44258 5.32042 10.9995 5.20524L11.3911 5.18911L11.7874 5.17529L11.9855 5.16838L12.3794 5.15226C14.5717 5.08171 16.7649 5.04254 18.9584 5.03477H19.403V5.03247ZM15.5998 12.4269V23.5255L25.1757 17.9785L15.5998 12.4269Z" fill="white"/>
</g>
<defs>
<clipPath id="clip0_522_54">
<rect width="36.8571" height="36.8571" fill="white" transform="translate(0.856934 0.427734)"/>
</clipPath>
</defs>
</svg>
